<?xml version="1.0" encoding="iso-8859-1"?>
<!-- Generator: Adobe Illustrator 18.0.0, SVG Export Plug-In . SVG Version: 6.00 Build 0)  -->
<!DOCTYPE svg PUBLIC "-//W3C//DTD SVG 1.0//EN" "http://www.w3.org/TR/2001/REC-SVG-20010904/DTD/svg10.dtd">
<svg version="1.0" id="artwork" xmlns="http://www.w3.org/2000/svg" xmlns:xlink="http://www.w3.org/1999/xlink" x="0px" y="0px"
	 width="1400px" height="980px" viewBox="0 0 1400 980" style="enable-background:new 0 0 1400 980;" xml:space="preserve">
<style type="text/css">
	.st0{fill:#3F3B32;}
	.st1{fill:#151E26;}
	.st2{fill:#1E2A36;}
	.st3{fill:#2B2E2B;}
	.st4{fill:#563285;}
	.st5{fill:#341E51;}
	.st6{fill:#45286B;}
	.st7{fill:#7A54A2;}
	.st8{fill:#8B6AAE;}
	.st9{fill:#032B3D;}
	.st10{fill:#0D4461;}
	.st11{fill:#F5833C;}
	.st12{fill:#F15A38;}
	.st13{fill:#F3703A;}
	.st14{fill:#F99D3E;}
	.st15{fill:#FBB040;}
	.st16{fill:#3372B9;}
	.st17{fill:#173159;}
	.st18{fill:#0E4C8C;}
	.st19{fill:#80B9E4;}
	.st20{fill:#4791CE;}
	.st21{fill:#590C0E;}
	.st22{fill:#941A1D;}
	.st23{fill:#EE2B2E;}
	.st24{fill:#D42027;}
	.st25{fill:#396789;}
	.st26{fill:#04261D;}
	.st27{fill:#064C29;}
	.st28{fill:#188040;}
	.st29{fill:#50B956;}
	.st30{fill:#A1D186;}
	.st31{fill:#DF2E5B;}
	.st32{fill:#A11D21;}
	.st33{fill:#BC1F35;}
	.st34{fill:#F7B1C3;}
	.st35{fill:#F0788C;}
	.st36{fill:#008DB7;}
	.st37{fill:#00B9F2;}
	.st38{fill:#44C8F5;}
	.st39{fill:#8ED8F8;}
	.st40{fill:#009BCA;}
</style>
<rect y="533.18" class="st0" width="1400" height="446.82"/>
<rect class="st1" width="1400" height="533.18"/>
<path class="st2" d="M785.67,232.66c1.2-10.02,0.09-20.96,0.09-20.96s2.35-7.33,2.01-10.86c-0.34-3.53-4.4-4.78-4.4-4.78
	s-1-3.49-8.66-13c-7.65-9.51-26.33-10.33-26.33-10.33l2.93,4.67c0,0,12.95,7.69,15.69,12.49c2.74,4.8,1.37,6.86,1.28,7.34
	c-0.09,0.48-5.28,5.3-5.28,5.3l0.88,1.48c0,0-0.95,5.11-4.77,9.69c-3.82,4.58-28.21,25.66-28.21,25.66l-2.4-0.44
	c0,0,0.41-2.24,0.71-3.83c0.3-1.6-0.47-3.72-1.61-3.77c-1.15-0.05-3.35-0.62-5.54,2.28c-2.19,2.9-2.37,8.32-4.1,9.65
	c-1.73,1.33-3.01,1.09-3.8,3.59c-0.79,2.5-1.18,1.93-3.4,3.17c-2.21,1.24-1.6,1.52-2.02,3.76c-0.41,2.24-1.88,2.13-3.54,3.97
	c-1.66,1.84-2.51,4.65-2.51,4.65s-1.82,4.45-6.54,8.53c-4.09,3.54-15.56,9.94-25.63,17.37c-0.13-0.48-0.21-0.79-0.22-0.86
	c-0.07-0.51-0.53-3.4-1.01-6.13c-0.48-2.73-8.34-11.13-11.15-15.61c-2.8-4.48,0.3-10.52-4.4-20.8
	c-4.7-10.29-18.02-13.25-18.02-13.25s0.23-2.11-1.63-2.78c-1.86-0.67-5.5-1.52-5.1-2.76c0.27-0.86-0.07-1.75-0.4-3.21
	c-0.67-0.39-1.36-0.76-1.95-1.02c-1.91-0.84-3.35-0.62-5.59-1.04c-2.24-0.41-1.12-2.85-0.95-3.81s1.31-1.74,2.48-2.68
	c0.41-0.33,1.09-0.69,1.86-1.06c0.34-0.93,1.56-0.54,1.81-2.55c0.28-2.26-0.38-2.55-0.97-6.46c-0.6-3.91-0.66-1.77-1.06-4.99
	c-0.4-3.21,0.14-3.44,0.61-4.18s4.39-0.51,4.39-0.51s0.67-1.86-0.76-3.94c-1.43-2.08-5.4-1.17-7.5-3.21
	c-2.1-2.04-4.18-5.07-4.34-9.56c-0.16-4.49-2.65-5.28-6.26-8.1c-3.61-2.82-2.48,0.03-8.9,1.65c-6.41,1.62-16.06-0.67-19.08,2.24
	s-2.38,7.49-0.83,13.39c0,0,0.9,3.14,0.73,4.1c-0.18,0.96-3.57,4.13-5.73,5.05c-2.15,0.92-3.33,5.49-3.33,5.49s0,0,4.15,0.77
	c4.15,0.77,3.5-0.18,3.38,0.46c-0.12,0.64,0.73,2.28,0.99,4.48s0.6,2.09,1.21,4.19s2.19,1.56,2.36,2.42
	c0.17,0.86,1.88,6.79,1.88,6.79s-2.89,3.1-7.17,2.14s-6.8,1.05-10.91,3.59c-4.11,2.54-4.69,3.92-7.61,13.45s-2.15,12.48-4.5,15.35
	c-2.35,2.87-8.66,11.94-10.37,19.39c-1.71,7.45-6.23,28.25-8.12,32.19c-1.89,3.94-13.07,10.79-15.46,17.45
	c-2.39,6.66-19.49,23.14-20.38,25.29c-0.89,2.15-3.27,34.58,2.21,41.54c5.48,6.96,11.65,20,26.62,22.11
	c14.97,2.11,23.28,29.42,38.42,41.31c15.14,11.89,22.53,0.54,23.87-1.36c1.34-1.9-3.61-9.92-2.7-14.21
	c0.91-4.29,2.64-5.95,3.73-11.86c1.1-5.91,1.6-8.62,2.46-13.25s0.35-9.02,0.58-15.58c0.23-6.56-0.08-26.28,0.46-30.97
	c0.54-4.69,0.15-5.26,0.82-11.57c0.68-6.32,3.25-4.19,7.54-7.69c4.28-3.5-0.06-4.14,0.62-10.46c0.68-6.32,2.97-8.87,4.12-15.09
	c0.26-1.39,0.73-3.03,1.33-4.76c5.17-1.97,13.48-5.19,15.24-6.2c2.59-1.5,7.78-1.86,8.97-1.18s5.33,3.33,6.07,3.8
	c0.74,0.47,0.89,1.16,0.89,1.16l-8.62,8.48c0,0-2.52,2.01-3.47,2.66c-0.95,0.65-0.36,1.92-0.43,3.22c-0.08,1.31,5.22,2.12,5.22,2.12
	l13.85-11.47c0,0,1.65,1.79,4.58,2.01c2.93,0.21,4.29-2.67,4.29-2.67c4.12,0.93,5.03-2.21,5.03-2.21s1.03,0.69,2.71,0.5
	c1.69-0.18,1.96-3.44,3.35-3.84c1.08-0.31,3.28-0.72,4.67-2.12l0,0c0,0,0.01-0.01,0.02-0.03c0.3-0.31,0.56-0.66,0.76-1.07
	c1.29-1.79,3.8-5.16,4.59-5.5c1.08-0.46,8.25-4.42,12.24-10.78c3.99-6.36,20.92-21.06,23.83-22.51c2.91-1.44,8.65-3.02,10.97-3.91
	c2.31-0.89,1.08-2.28,1.08-2.28s1.53-0.21,2.34-1.05c0.82-0.84,2.43-4.18,2.43-4.18s1.72-0.34,2.7-2.97
	c0.98-2.63,0.98-0.81,0.38-4.72c-0.6-3.91,0.81-7.94,0.81-7.94s29.94-25.17,31.35-26.56c1.41-1.39,3.42-1.51,3.42-1.51
	s2.43,7.39,3.41,18.14c0.98,10.75,1.42,21.74,1.42,21.74S784.47,242.68,785.67,232.66z M642.18,294.75
	c-4.59-0.19-7.51-1.39-12.42,0.17c-2.23,0.71-5.23,0.94-7.84,0.98c1.02-2.29,3.23-6.81,6.1-11.21c3.46-5.3-0.09-3.98,0.67-8.96
	c0.76-4.98,2.47-5.32,4.74-6.88c2.27-1.56,2.95,1.04,5.88,3.9c2.94,2.86,2.99,4.35,4.72,11.94c1.73,7.59,5.04,9.36,5.04,9.36
	s0.22,0.11,0.62,0.3C647,294.63,644.44,294.85,642.18,294.75z"/>
<polygon class="st3" points="0,533.18 0,769 323,769 274,725.08 480,725.08 274,632 459,632 424,597 534,597 497,570.08 587,570.08 
	691,595 877,595 814,633 1099,633 1049.5,682.5 1172.57,682.5 1225.36,735.29 633,772.58 1400,833 1400,533.18 "/>
<g>
	<polygon class="st4" points="490.7,277.86 464.45,315.61 482.31,308.01 	"/>
	<polygon class="st5" points="462.01,413.93 464.45,315.61 482.31,308.01 472.93,415.13 	"/>
	<polygon class="st6" points="497.02,350.85 482.31,308.01 472.93,415.13 483.56,416.3 	"/>
	<polygon class="st4" points="483.56,416.3 489.76,416.98 506.13,344.08 497.02,350.85 	"/>
	<polygon class="st5" points="447.39,323.99 434.94,333.97 445.28,412.09 452.17,412.85 	"/>
	<polygon class="st6" points="463.55,351.88 447.39,323.99 452.17,412.85 462.01,413.93 	"/>
	<polygon class="st4" points="464.25,323.64 447.39,323.99 463.55,351.88 	"/>
	<polygon class="st7" points="450.96,306.06 447.39,323.99 464.25,323.64 	"/>
	<polygon class="st4" points="434.94,333.97 450.96,306.06 447.39,323.99 	"/>
	<polygon class="st5" points="493.89,354.84 473.26,415.29 481.16,422.45 498.21,365.56 	"/>
	<polygon class="st4" points="515.94,372.71 498.63,426.75 505.77,428.51 524.98,368.5 	"/>
	<polygon class="st6" points="498.21,365.56 481.16,422.45 498.63,426.75 515.94,372.71 	"/>
	<polygon class="st8" points="524.98,368.5 516.61,348.42 515.94,372.71 	"/>
	<polygon class="st4" points="516.61,348.42 493.89,354.84 498.21,365.56 	"/>
	<polygon class="st7" points="515.94,372.71 516.61,348.42 498.21,365.56 	"/>
	<polygon class="st8" points="490.7,277.86 482.31,308.01 508.95,318.4 	"/>
	<polygon class="st7" points="482.31,308.01 497.02,350.85 506.13,344.08 508.95,318.4 	"/>
	<polygon class="st8" points="474.13,412.99 486.08,406.26 477.91,391.91 451.71,402.48 459.12,411.34 	"/>
	<polygon class="st6" points="459.12,411.34 451.71,402.48 445.5,417.77 461.81,431.24 462.54,424.63 	"/>
	<polygon class="st4" points="486.08,406.26 474.13,412.99 462.54,424.63 461.81,431.24 489.04,426.75 	"/>
	<polygon class="st7" points="462.54,424.63 474.13,412.99 459.12,411.34 	"/>
</g>
<g>
	<polygon class="st4" points="572.37,366.29 546.12,404.04 563.98,396.44 	"/>
	<polygon class="st5" points="543.68,502.36 546.12,404.04 563.98,396.44 554.6,503.56 	"/>
	<polygon class="st6" points="578.69,439.29 563.98,396.44 554.6,503.56 565.23,504.73 	"/>
	<polygon class="st4" points="565.23,504.73 571.43,505.41 587.8,432.52 578.69,439.29 	"/>
	<polygon class="st5" points="529.06,412.42 516.61,422.41 526.95,500.53 533.84,501.28 	"/>
	<polygon class="st6" points="545.22,440.32 529.06,412.42 533.84,501.28 543.68,502.36 	"/>
	<polygon class="st4" points="545.92,412.08 529.06,412.42 545.22,440.32 	"/>
	<polygon class="st7" points="532.63,394.49 529.06,412.42 545.92,412.08 	"/>
	<polygon class="st4" points="516.61,422.41 532.63,394.49 529.06,412.42 	"/>
	<polygon class="st5" points="575.56,443.27 554.93,503.72 562.82,510.89 579.88,454 	"/>
	<polygon class="st4" points="597.61,461.15 580.3,515.19 587.44,516.95 606.65,456.93 	"/>
	<polygon class="st6" points="579.88,454 562.82,510.89 580.3,515.19 597.61,461.15 	"/>
	<polygon class="st8" points="606.65,456.93 598.28,436.86 597.61,461.15 	"/>
	<polygon class="st4" points="598.28,436.86 575.56,443.27 579.88,454 	"/>
	<polygon class="st7" points="597.61,461.15 598.28,436.86 579.88,454 	"/>
	<polygon class="st8" points="572.37,366.29 563.98,396.44 590.62,406.84 	"/>
	<polygon class="st7" points="563.98,396.44 578.69,439.29 587.8,432.52 590.62,406.84 	"/>
	<polygon class="st8" points="555.8,501.42 567.75,494.69 559.58,480.35 533.38,490.92 540.79,499.77 	"/>
	<polygon class="st6" points="540.79,499.77 533.38,490.92 527.17,506.21 543.48,519.67 544.21,513.07 	"/>
	<polygon class="st4" points="567.75,494.69 555.8,501.42 544.21,513.07 543.48,519.67 570.71,515.19 	"/>
	<polygon class="st7" points="544.21,513.07 555.8,501.42 540.79,499.77 	"/>
</g>
<g>
	<polygon class="st4" points="484.79,222.68 462.29,245.81 475.53,242.6 	"/>
	<polygon class="st5" points="449.37,313.62 462.29,245.81 475.53,242.6 456.79,315.7 	"/>
	<polygon class="st6" points="480.82,273.94 475.53,242.6 456.79,315.7 464.02,317.72 	"/>
	<polygon class="st4" points="464.02,317.72 468.23,318.9 487.9,270.3 480.82,273.94 	"/>
	<polygon class="st5" points="449.53,249.67 439.76,255.16 437.99,310.43 442.68,311.75 	"/>
	<polygon class="st6" points="457.53,270.83 449.53,249.67 442.68,311.75 449.37,313.62 	"/>
	<polygon class="st4" points="461.24,251.36 449.53,249.67 457.53,270.83 	"/>
	<polygon class="st7" points="454.04,237.66 449.53,249.67 461.24,251.36 	"/>
	<polygon class="st4" points="439.76,255.16 454.04,237.66 449.53,249.67 	"/>
	<polygon class="st5" points="478.2,276.35 457,315.85 461.65,321.71 479.96,284.27 	"/>
	<polygon class="st4" points="491.42,291.24 473.26,326.69 478,328.72 498.17,289.36 	"/>
	<polygon class="st6" points="479.96,284.27 461.65,321.71 473.26,326.69 491.42,291.24 	"/>
	<polygon class="st8" points="498.17,289.36 494.66,274.5 491.42,291.24 	"/>
	<polygon class="st4" points="494.66,274.5 478.2,276.35 479.96,284.27 	"/>
	<polygon class="st7" points="491.42,291.24 494.66,274.5 479.96,284.27 	"/>
	<polygon class="st8" points="484.79,222.68 475.53,242.6 492.79,252.84 	"/>
	<polygon class="st7" points="475.53,242.6 480.82,273.94 487.9,270.3 492.79,252.84 	"/>
	<polygon class="st8" points="457.86,314.35 466.91,311.06 462.9,300.19 443.54,304.51 447.66,311.5 	"/>
	<polygon class="st6" points="447.66,311.5 443.54,304.51 437.49,314.39 447.25,325.58 448.51,321.09 	"/>
	<polygon class="st4" points="466.91,311.06 457.86,314.35 448.51,321.09 447.25,325.58 466.62,325.59 	"/>
	<polygon class="st7" points="448.51,321.09 457.86,314.35 447.66,311.5 	"/>
</g>
<g>
	<polygon class="st4" points="498.18,178.58 465.98,180.72 477.98,187.19 	"/>
	<polygon class="st5" points="411.01,222.46 465.98,180.72 477.98,187.19 415.13,228.97 	"/>
	<polygon class="st6" points="460.93,214.02 477.98,187.19 415.13,228.97 419.15,235.31 	"/>
	<polygon class="st4" points="419.15,235.31 421.49,239.01 468.63,216.05 460.93,214.02 	"/>
	<polygon class="st5" points="453.92,175.04 442.99,172.59 404.69,212.48 407.29,216.59 	"/>
	<polygon class="st6" points="445.7,196.12 453.92,175.04 407.29,216.59 411.01,222.46 	"/>
	<polygon class="st4" points="461.49,184.13 453.92,175.04 445.7,196.12 	"/>
	<polygon class="st7" points="465.31,169.14 453.92,175.04 461.49,184.13 	"/>
	<polygon class="st4" points="442.99,172.59 465.31,169.14 453.92,175.04 	"/>
	<polygon class="st5" points="457.37,214.05 415.19,229.22 414.72,236.69 453.38,221.12 	"/>
	<polygon class="st4" points="457.23,233.97 420.02,248.16 422.18,252.84 463.5,237.09 	"/>
	<polygon class="st6" points="453.38,221.12 414.72,236.69 420.02,248.16 457.23,233.97 	"/>
	<polygon class="st8" points="463.5,237.09 470.84,223.7 457.23,233.97 	"/>
	<polygon class="st4" points="470.84,223.7 457.37,214.05 453.38,221.12 	"/>
	<polygon class="st7" points="457.23,233.97 470.84,223.7 453.38,221.12 	"/>
	<polygon class="st8" points="498.18,178.58 477.98,187.19 483.95,206.35 	"/>
	<polygon class="st7" points="477.98,187.19 460.93,214.02 468.63,216.05 483.95,206.35 	"/>
	<polygon class="st8" points="416.83,228.69 425.76,232.3 430.04,221.53 412.77,211.8 411.16,219.74 	"/>
	<polygon class="st6" points="411.16,219.74 412.77,211.8 401.67,215.09 401.43,229.93 405.37,227.44 	"/>
	<polygon class="st4" points="425.76,232.3 416.83,228.69 405.37,227.44 401.43,229.93 415.82,242.9 	"/>
	<polygon class="st7" points="405.37,227.44 416.83,228.69 411.16,219.74 	"/>
</g>
<polygon class="st9" points="767.59,533.18 677.59,458.18 566.6,486.68 481.1,372.68 434.6,215.19 443.6,61.11 428.6,0 0,0 
	0,533.18 "/>
<polygon class="st10" points="428.6,0 443.6,61.11 434.6,215.19 481.1,372.68 566.6,486.68 677.59,458.18 767.59,533.18 687,533.18 
	674,477 565,500.08 417,397 423,213 417,68 335,0 "/>
<g>
	<polygon class="st11" points="941.96,342.83 911.42,371.53 928.13,368.23 	"/>
	<polygon class="st12" points="887.26,459.25 911.42,371.53 928.13,368.23 896.17,462.48 	"/>
	<polygon class="st13" points="930.86,409.56 928.13,368.23 896.17,462.48 904.84,465.62 	"/>
	<polygon class="st11" points="904.84,465.62 909.89,467.45 940.04,405.28 930.86,409.56 	"/>
	<polygon class="st12" points="895.2,375.69 882.5,382.2 873.62,454.31 879.24,456.35 	"/>
	<polygon class="st13" points="902.51,403.89 895.2,375.69 879.24,456.35 887.26,459.25 	"/>
	<polygon class="st14" points="909.44,378.7 895.2,375.69 902.51,403.89 	"/>
	<polygon class="st15" points="902.23,360.3 895.2,375.69 909.44,378.7 	"/>
	<polygon class="st11" points="882.5,382.2 902.23,360.3 895.2,375.69 	"/>
	<polygon class="st15" points="941.96,342.83 928.13,368.23 948.18,382.8 	"/>
	<polygon class="st14" points="928.13,368.23 930.86,409.56 940.04,405.28 948.18,382.8 	"/>
	<polygon class="st13" points="891.94,460.95 936.52,422.49 936.49,432.53 893.29,465.04 	"/>
	<polygon class="st14" points="966.56,422.04 952.57,432.94 936.49,432.53 936.52,422.49 	"/>
	<polygon class="st15" points="952.57,432.94 945.34,452.9 969.31,442.18 966.56,422.04 	"/>
	<polygon class="st11" points="936.49,432.53 893.29,465.04 907.33,469.19 945.34,452.9 952.57,432.94 	"/>
	<polygon class="st13" points="891.94,460.95 882.33,402.86 875.93,410.59 888.28,463.23 	"/>
	<polygon class="st15" points="859.55,383.28 863.32,400.61 875.93,410.59 882.33,402.86 	"/>
	<polygon class="st14" points="863.32,400.61 856.08,420.57 844.54,396.99 859.55,383.28 	"/>
	<polygon class="st11" points="875.93,410.59 888.28,463.23 874.85,457.42 856.08,420.57 863.32,400.61 	"/>
</g>
<g>
	<polygon class="st11" points="957.97,278.41 927.42,307.1 944.14,303.8 	"/>
	<polygon class="st12" points="903.27,394.83 927.42,307.1 944.14,303.8 912.18,398.06 	"/>
	<polygon class="st13" points="946.87,345.14 944.14,303.8 912.18,398.06 920.84,401.2 	"/>
	<polygon class="st11" points="920.84,401.2 925.9,403.03 956.04,340.86 946.87,345.14 	"/>
	<polygon class="st12" points="911.21,311.27 898.51,317.77 889.63,389.89 895.25,391.93 	"/>
	<polygon class="st13" points="918.51,339.47 911.21,311.27 895.25,391.93 903.27,394.83 	"/>
	<polygon class="st14" points="925.45,314.27 911.21,311.27 918.51,339.47 	"/>
	<polygon class="st15" points="918.24,295.88 911.21,311.27 925.45,314.27 	"/>
	<polygon class="st11" points="898.51,317.77 918.24,295.88 911.21,311.27 	"/>
	<polygon class="st15" points="957.97,278.41 944.14,303.8 964.19,318.37 	"/>
	<polygon class="st14" points="944.14,303.8 946.87,345.14 956.04,340.86 964.19,318.37 	"/>
	<polygon class="st13" points="907.95,396.53 952.53,358.07 952.5,368.1 909.3,400.62 	"/>
	<polygon class="st14" points="982.57,357.62 968.58,368.52 952.5,368.1 952.53,358.07 	"/>
	<polygon class="st15" points="968.58,368.52 961.35,388.48 985.32,377.76 982.57,357.62 	"/>
	<polygon class="st11" points="952.5,368.1 909.3,400.62 923.34,404.76 961.35,388.48 968.58,368.52 	"/>
	<polygon class="st13" points="907.95,396.53 898.34,338.44 891.93,346.17 904.29,398.81 	"/>
	<polygon class="st15" points="875.55,318.85 879.32,336.19 891.93,346.17 898.34,338.44 	"/>
	<polygon class="st14" points="879.32,336.19 872.09,356.15 860.54,332.56 875.55,318.85 	"/>
	<polygon class="st11" points="891.93,346.17 904.29,398.81 890.85,393 872.09,356.15 879.32,336.19 	"/>
</g>
<g>
	<polygon class="st11" points="975.79,101.77 970.34,136.85 979.78,125.94 	"/>
	<polygon class="st12" points="999.92,208.04 970.34,136.85 979.78,125.94 1007.55,205.55 	"/>
	<polygon class="st13" points="1003.14,152.13 979.78,125.94 1007.55,205.55 1014.97,203.13 	"/>
	<polygon class="st11" points="1014.97,203.13 1019.3,201.72 1007.04,144.49 1003.14,152.13 	"/>
	<polygon class="st12" points="961.68,148.08 956.58,159.05 988.23,211.85 993.04,210.28 	"/>
	<polygon class="st13" points="981.25,163.12 961.68,148.08 993.04,210.28 999.92,208.04 	"/>
	<polygon class="st14" points="972.76,142.67 961.68,148.08 981.25,163.12 	"/>
	<polygon class="st15" points="958.35,134.15 961.68,148.08 972.76,142.67 	"/>
	<polygon class="st11" points="956.58,159.05 958.35,134.15 961.68,148.08 	"/>
	<polygon class="st15" points="975.79,101.77 979.78,125.94 1000.77,125.23 	"/>
	<polygon class="st14" points="979.78,125.94 1003.14,152.13 1007.04,144.49 1000.77,125.23 	"/>
	<polygon class="st13" points="1003.92,206.73 1013.66,157.82 1018.87,164.53 1006.96,208.77 	"/>
	<polygon class="st14" points="1033.5,141.86 1029.83,156.43 1018.87,164.53 1013.66,157.82 	"/>
	<polygon class="st15" points="1029.83,156.43 1035.4,173.54 1045.83,153.88 1033.5,141.86 	"/>
	<polygon class="st11" points="1018.87,164.53 1006.96,208.77 1018.49,204.22 1035.4,173.54 1029.83,156.43 	"/>
	<polygon class="st13" points="1003.92,206.73 967.24,172.94 966.99,181.44 1002.67,210.16 	"/>
	<polygon class="st15" points="941.81,171.73 953.36,181.35 966.99,181.44 967.24,172.94 	"/>
	<polygon class="st14" points="953.36,181.35 958.93,198.45 938.93,188.71 941.81,171.73 	"/>
	<polygon class="st11" points="966.99,181.44 1002.67,210.16 990.67,213.28 958.93,198.45 953.36,181.35 	"/>
</g>
<g>
	<polygon class="st11" points="1002.57,192.5 972.03,221.19 988.74,217.89 	"/>
	<polygon class="st12" points="947.87,308.92 972.03,221.19 988.74,217.89 956.78,312.15 	"/>
	<polygon class="st13" points="991.47,259.23 988.74,217.89 956.78,312.15 965.45,315.29 	"/>
	<polygon class="st11" points="965.45,315.29 970.5,317.12 1000.65,254.95 991.47,259.23 	"/>
	<polygon class="st12" points="955.81,225.36 943.11,231.87 934.23,303.98 939.85,306.02 	"/>
	<polygon class="st13" points="963.12,253.56 955.81,225.36 939.85,306.02 947.87,308.92 	"/>
	<polygon class="st14" points="970.05,228.37 955.81,225.36 963.12,253.56 	"/>
	<polygon class="st15" points="962.84,209.97 955.81,225.36 970.05,228.37 	"/>
	<polygon class="st11" points="943.11,231.87 962.84,209.97 955.81,225.36 	"/>
	<polygon class="st15" points="1002.57,192.5 988.74,217.89 1008.79,232.46 	"/>
	<polygon class="st14" points="988.74,217.89 991.47,259.23 1000.65,254.95 1008.79,232.46 	"/>
	<polygon class="st13" points="952.55,310.62 997.13,272.16 997.1,282.2 953.9,314.71 	"/>
	<polygon class="st14" points="1027.17,271.71 1013.18,282.61 997.1,282.2 997.13,272.16 	"/>
	<polygon class="st15" points="1013.18,282.61 1005.95,302.57 1029.92,291.85 1027.17,271.71 	"/>
	<polygon class="st11" points="997.1,282.2 953.9,314.71 967.94,318.85 1005.95,302.57 1013.18,282.61 	"/>
	<polygon class="st13" points="952.55,310.62 942.94,252.53 936.54,260.26 948.89,312.9 	"/>
	<polygon class="st15" points="920.16,232.95 923.92,250.28 936.54,260.26 942.94,252.53 	"/>
	<polygon class="st14" points="923.92,250.28 916.69,270.24 905.15,246.66 920.16,232.95 	"/>
	<polygon class="st11" points="936.54,260.26 948.89,312.9 935.46,307.09 916.69,270.24 923.92,250.28 	"/>
</g>
<g>
	<polygon class="st4" points="877.09,337.24 843.16,368.27 862.26,364.8 	"/>
	<polygon class="st5" points="819.12,463.64 843.16,368.27 862.26,364.8 829.51,467.22 	"/>
	<polygon class="st6" points="867.17,409.83 862.26,364.8 829.51,467.22 839.62,470.7 	"/>
	<polygon class="st4" points="839.62,470.7 845.51,472.73 877.55,405.24 867.17,409.83 	"/>
	<polygon class="st5" points="824.68,372.69 810.33,379.69 803.21,458.16 809.76,460.42 	"/>
	<polygon class="st6" points="834.29,403.46 824.68,372.69 809.76,460.42 819.12,463.64 	"/>
	<polygon class="st4" points="841.19,376.07 824.68,372.69 834.29,403.46 	"/>
	<polygon class="st7" points="832.1,355.99 824.68,372.69 841.19,376.07 	"/>
	<polygon class="st4" points="810.33,379.69 832.1,355.99 824.68,372.69 	"/>
	<polygon class="st5" points="863.23,413.03 829.79,467.44 835.91,476.17 865.08,424.44 	"/>
	<polygon class="st4" points="880.8,435.32 852.01,484.22 858.59,487.51 890.55,433.21 	"/>
	<polygon class="st6" points="865.08,424.44 835.91,476.17 852.01,484.22 880.8,435.32 	"/>
	<polygon class="st8" points="890.55,433.21 886.81,411.78 880.8,435.32 	"/>
	<polygon class="st4" points="886.81,411.78 863.23,413.03 865.08,424.44 	"/>
	<polygon class="st7" points="880.8,435.32 886.81,411.78 865.08,424.44 	"/>
	<polygon class="st8" points="877.09,337.24 862.26,364.8 885.96,380.81 	"/>
	<polygon class="st7" points="862.26,364.8 867.17,409.83 877.55,405.24 885.96,380.81 	"/>
	<polygon class="st8" points="831.14,465.39 844.29,461.46 839.48,445.67 811.6,450.21 816.87,460.48 	"/>
	<polygon class="st6" points="816.87,460.48 811.6,450.21 802.17,463.75 815.11,480.48 817.27,474.2 	"/>
	<polygon class="st4" points="844.29,461.46 831.14,465.39 817.27,474.2 815.11,480.48 842.66,482.1 	"/>
	<polygon class="st7" points="817.27,474.2 831.14,465.39 816.87,460.48 	"/>
</g>
<g>
	<polygon class="st16" points="729.54,434.67 751.35,515.6 740.39,524.31 722.96,448.34 	"/>
	<polygon class="st17" points="699.12,456.18 717.13,528.44 707.63,530.12 687.64,449.88 	"/>
	<polygon class="st18" points="722.96,448.34 740.39,524.31 717.13,528.44 699.12,456.18 	"/>
	<polygon class="st16" points="687.64,449.88 700.33,424.31 699.12,456.18 	"/>
	<polygon class="st19" points="700.33,424.31 729.54,434.67 722.96,448.34 	"/>
	<polygon class="st20" points="699.12,456.18 700.33,424.31 722.96,448.34 	"/>
	<polygon class="st17" points="721.78,539.28 665.44,521.57 677.35,516.64 749.35,539.28 	"/>
	<polygon class="st19" points="686.2,507.96 675.31,506.94 677.35,516.64 698.77,523.37 	"/>
	<polygon class="st18" points="690.29,494 686.2,507.96 698.77,523.37 749.35,539.28 748.12,529.32 	"/>
	<polygon class="st20" points="665.44,496.75 675.31,506.94 686.2,507.96 690.29,494 	"/>
	<polygon class="st16" points="665.44,521.57 665.44,496.75 675.31,506.94 677.35,516.64 	"/>
	<polygon class="st17" points="725.2,529.43 735.79,395.16 747.15,402.8 736.17,529.43 	"/>
	<polygon class="st18" points="770.66,405.74 747.15,402.8 736.17,529.43 760.24,529.43 	"/>
	<polygon class="st16" points="780.92,399.86 770.66,405.74 760.24,529.43 768.28,529.43 	"/>
	<polygon class="st16" points="764.45,368.03 735.79,395.16 747.15,402.8 	"/>
	<polygon class="st20" points="770.66,405.74 747.15,402.8 764.45,368.03 	"/>
	<polygon class="st19" points="780.92,399.86 764.45,368.03 770.66,405.74 	"/>
	<polygon class="st17" points="734.51,520.86 785.5,418.31 792.04,427.94 743.17,524.35 	"/>
	<polygon class="st18" points="809.65,437.72 792.04,427.94 743.17,524.35 762.15,531.99 	"/>
	<polygon class="st16" points="819.6,436.34 809.65,437.72 762.15,531.99 768.49,534.54 	"/>
	<polygon class="st16" points="816.72,406.01 785.5,418.31 792.04,427.94 	"/>
	<polygon class="st20" points="809.65,437.72 792.04,427.94 816.72,406.01 	"/>
	<polygon class="st19" points="819.6,436.34 816.72,406.01 809.65,437.72 	"/>
	<polygon class="st17" points="745.79,534.51 786.3,462.34 791.07,475.62 749.54,539.28 	"/>
	<polygon class="st20" points="825.79,447.36 812.51,468.47 791.07,475.62 786.3,462.34 	"/>
	<polygon class="st19" points="812.51,468.47 812.51,498.31 839.07,472.67 825.79,447.36 	"/>
	<polygon class="st18" points="791.07,475.62 749.54,539.28 770.08,538.03 812.51,498.31 812.51,468.47 	"/>
	<polygon class="st17" points="733.52,539.28 712.08,524.13 728.76,519.36 749.35,539.28 	"/>
	<polygon class="st18" points="727.4,503.87 728.76,519.36 749.35,539.28 747.65,525.49 	"/>
	<polygon class="st19" points="712.08,506.94 728.76,519.36 727.4,503.87 	"/>
	<polygon class="st16" points="712.08,524.13 728.76,519.36 712.08,506.94 	"/>
</g>
<g>
	<polygon class="st4" points="419.79,407.54 399.29,445.22 415.08,436.36 	"/>
	<polygon class="st5" points="407.05,536.66 399.29,445.22 415.08,436.36 417.3,536.66 	"/>
	<polygon class="st6" points="433.09,474.59 415.08,436.36 417.3,536.66 427.27,536.66 	"/>
	<polygon class="st4" points="427.27,536.66 433.09,536.66 440.85,467.39 433.09,474.59 	"/>
	<polygon class="st5" points="384.33,454.73 373.8,465.26 391.35,536.66 397.81,536.66 	"/>
	<polygon class="st6" points="402.15,478.96 384.33,454.73 397.81,536.66 407.05,536.66 	"/>
	<polygon class="st4" points="399.92,452.7 384.33,454.73 402.15,478.96 	"/>
	<polygon class="st7" points="385.8,437.74 384.33,454.73 399.92,452.7 	"/>
	<polygon class="st4" points="373.8,465.26 385.8,437.74 384.33,454.73 	"/>
	<polygon class="st5" points="430.59,478.61 417.62,536.77 425.67,542.61 435.69,488.11 	"/>
	<polygon class="st4" points="452.86,492.94 442.31,544.82 449.11,545.72 460.82,488.11 	"/>
	<polygon class="st6" points="435.69,488.11 425.67,542.61 442.31,544.82 452.86,492.94 	"/>
	<polygon class="st8" points="460.82,488.11 451.01,470.34 452.86,492.94 	"/>
	<polygon class="st4" points="451.01,470.34 430.59,478.61 435.69,488.11 	"/>
	<polygon class="st7" points="452.86,492.94 451.01,470.34 435.69,488.11 	"/>
	<polygon class="st8" points="419.79,407.54 415.08,436.36 440.85,443.28 	"/>
	<polygon class="st7" points="415.08,436.36 433.09,474.59 440.85,467.39 440.85,443.28 	"/>
	<polygon class="st8" points="418.19,534.55 428.59,527.09 419.55,514.62 396.33,527.09 404.1,534.55 	"/>
	<polygon class="st6" points="404.1,534.55 396.33,527.09 392.13,541.91 408.62,552.73 408.62,546.53 	"/>
	<polygon class="st4" points="428.59,527.09 418.19,534.55 408.62,546.53 408.62,552.73 433.42,545.79 	"/>
	<polygon class="st7" points="408.62,546.53 418.19,534.55 404.1,534.55 	"/>
</g>
<g>
	<polygon class="st4" points="379.12,327.23 346.77,359.5 365.59,355.23 	"/>
	<polygon class="st5" points="327.01,455.23 346.77,359.5 365.59,355.23 337.48,458.33 	"/>
	<polygon class="st6" points="372.4,399.73 365.59,355.23 337.48,458.33 347.66,461.35 	"/>
	<polygon class="st4" points="347.66,461.35 353.6,463.11 382.5,394.72 372.4,399.73 	"/>
	<polygon class="st5" points="328.61,364.68 314.67,372.25 310.97,450.47 317.57,452.43 	"/>
	<polygon class="st6" points="339.48,394.82 328.61,364.68 317.57,452.43 327.01,455.23 	"/>
	<polygon class="st4" points="345.16,367.33 328.61,364.68 339.48,394.82 	"/>
	<polygon class="st7" points="335.27,347.78 328.61,364.68 345.16,367.33 	"/>
	<polygon class="st4" points="314.67,372.25 335.27,347.78 328.61,364.68 	"/>
	<polygon class="st5" points="368.63,403.07 337.77,458.54 344.22,466.95 370.96,414.33 	"/>
	<polygon class="st4" points="387.03,424.45 360.55,474.24 367.22,477.22 396.62,421.93 	"/>
	<polygon class="st6" points="370.96,414.33 344.22,466.95 360.55,474.24 387.03,424.45 	"/>
	<polygon class="st8" points="396.62,421.93 391.99,400.82 387.03,424.45 	"/>
	<polygon class="st4" points="391.99,400.82 368.63,403.07 370.96,414.33 	"/>
	<polygon class="st7" points="387.03,424.45 391.99,400.82 370.96,414.33 	"/>
	<polygon class="st8" points="379.12,327.23 365.59,355.23 389.8,370.11 	"/>
	<polygon class="st7" points="365.59,355.23 372.4,399.73 382.5,394.72 389.8,370.11 	"/>
	<polygon class="st8" points="339.02,456.45 351.9,451.98 346.45,436.51 318.96,442.21 324.64,452.18 	"/>
	<polygon class="st6" points="324.64,452.18 318.96,442.21 310.18,456.07 323.75,472.12 325.63,465.78 	"/>
	<polygon class="st4" points="351.9,451.98 339.02,456.45 325.63,465.78 323.75,472.12 351.18,472.54 	"/>
	<polygon class="st7" points="325.63,465.78 339.02,456.45 324.64,452.18 	"/>
</g>
<g>
	<polygon class="st4" points="314.08,205.43 291.99,245.43 308.87,236.09 	"/>
	<polygon class="st5" points="299.64,342.87 291.99,245.43 308.87,236.09 310.56,342.94 	"/>
	<polygon class="st6" points="327.8,276.94 308.87,236.09 310.56,342.94 321.19,343.01 	"/>
	<polygon class="st4" points="321.19,343.01 327.38,343.05 336.11,269.32 327.8,276.94 	"/>
	<polygon class="st5" points="275.99,255.46 264.7,266.61 282.92,342.77 289.8,342.81 	"/>
	<polygon class="st6" points="294.81,281.38 275.99,255.46 289.8,342.81 299.64,342.87 	"/>
	<polygon class="st4" points="292.61,253.39 275.99,255.46 294.81,281.38 	"/>
	<polygon class="st7" points="277.67,237.37 275.99,255.46 292.61,253.39 	"/>
	<polygon class="st4" points="264.7,266.61 277.67,237.37 275.99,255.46 	"/>
	<polygon class="st5" points="325.1,281.2 310.9,343.06 319.44,349.34 330.47,291.36 	"/>
	<polygon class="st4" points="348.73,296.61 337.15,351.8 344.39,352.81 357.24,291.52 	"/>
	<polygon class="st6" points="330.47,291.36 319.44,349.34 337.15,351.8 348.73,296.61 	"/>
	<polygon class="st8" points="357.24,291.52 346.91,272.53 348.73,296.61 	"/>
	<polygon class="st4" points="346.91,272.53 325.1,281.2 330.47,291.36 	"/>
	<polygon class="st7" points="348.73,296.61 346.91,272.53 330.47,291.36 	"/>
	<polygon class="st8" points="314.08,205.43 308.87,236.09 336.27,243.64 	"/>
	<polygon class="st7" points="308.87,236.09 327.8,276.94 336.11,269.32 336.27,243.64 	"/>
	<polygon class="st8" points="311.52,340.7 322.65,332.83 313.11,319.48 288.29,332.61 296.52,340.61 	"/>
	<polygon class="st6" points="296.52,340.61 288.29,332.61 283.71,348.36 301.21,360 301.26,353.4 	"/>
	<polygon class="st4" points="322.65,332.83 311.52,340.7 301.26,353.4 301.21,360 327.68,352.78 	"/>
	<polygon class="st7" points="301.26,353.4 311.52,340.7 296.52,340.61 	"/>
</g>
<g>
	<polygon class="st4" points="358.98,282.46 326.63,314.74 345.44,310.46 	"/>
	<polygon class="st5" points="306.86,410.46 326.63,314.74 345.44,310.46 317.33,413.56 	"/>
	<polygon class="st6" points="352.26,354.97 345.44,310.46 317.33,413.56 327.52,416.59 	"/>
	<polygon class="st4" points="327.52,416.59 333.46,418.35 362.36,349.96 352.26,354.97 	"/>
	<polygon class="st5" points="308.47,319.92 294.53,327.48 290.83,405.71 297.43,407.66 	"/>
	<polygon class="st6" points="319.34,350.05 308.47,319.92 297.43,407.66 306.86,410.46 	"/>
	<polygon class="st4" points="325.01,322.56 308.47,319.92 319.34,350.05 	"/>
	<polygon class="st7" points="315.12,303.01 308.47,319.92 325.01,322.56 	"/>
	<polygon class="st4" points="294.53,327.48 315.12,303.01 308.47,319.92 	"/>
	<polygon class="st5" points="348.48,358.31 317.62,413.78 324.08,422.18 350.81,369.56 	"/>
	<polygon class="st4" points="366.89,379.69 340.41,429.48 347.08,432.46 376.48,377.17 	"/>
	<polygon class="st6" points="350.81,369.56 324.08,422.18 340.41,429.48 366.89,379.69 	"/>
	<polygon class="st8" points="376.48,377.17 371.84,356.06 366.89,379.69 	"/>
	<polygon class="st4" points="371.84,356.06 348.48,358.31 350.81,369.56 	"/>
	<polygon class="st7" points="366.89,379.69 371.84,356.06 350.81,369.56 	"/>
	<polygon class="st8" points="358.98,282.46 345.44,310.46 369.66,325.34 	"/>
	<polygon class="st7" points="345.44,310.46 352.26,354.97 362.36,349.96 369.66,325.34 	"/>
	<polygon class="st8" points="318.88,411.68 331.76,407.21 326.31,391.74 298.81,397.44 304.5,407.42 	"/>
	<polygon class="st6" points="304.5,407.42 298.81,397.44 290.03,411.3 303.6,427.35 305.48,421.02 	"/>
	<polygon class="st4" points="331.76,407.21 318.88,411.68 305.48,421.02 303.6,427.35 331.03,427.78 	"/>
	<polygon class="st7" points="305.48,421.02 318.88,411.68 304.5,407.42 	"/>
</g>
<polygon class="st9" points="335,0 294,194.08 314.5,316.08 294,404.08 387,463.08 453,570.08 0,570.08 0,0 "/>
<polygon class="st9" points="408,612.58 327,516.08 258,516.08 180,379.08 164,247.08 201,176.08 177,0 0,0 0,612.58 "/>
<g>
	<polygon class="st21" points="117.3,442.95 127.06,375.72 135.73,380.7 120.32,462.11 	"/>
	<polygon class="st22" points="152.34,384.65 156.19,409.73 133.15,461.68 120.32,462.11 135.73,380.7 	"/>
	<polygon class="st23" points="156.45,368.74 152.34,384.65 156.19,409.73 159.95,397.78 160.7,382.74 	"/>
	<polygon class="st24" points="133.15,461.68 143.55,459.3 156.19,409.73 	"/>
	<polygon class="st24" points="144.05,363.25 135.73,380.7 152.34,384.65 156.45,368.74 	"/>
	<polygon class="st22" points="127.06,375.72 135.73,380.7 144.05,363.25 	"/>
	<polygon class="st21" points="94.5,470.52 72.82,331.94 84.79,337.37 104.35,468.26 	"/>
	<polygon class="st22" points="106.56,335.53 84.79,337.37 104.35,468.26 125.94,463.33 	"/>
	<polygon class="st24" points="114.4,327.46 106.56,335.53 125.94,463.33 133.15,461.68 	"/>
	<polygon class="st22" points="92.24,298.5 72.82,331.94 84.79,337.37 	"/>
	<polygon class="st24" points="106.56,335.53 84.79,337.37 92.24,298.5 	"/>
	<polygon class="st23" points="114.4,327.46 92.24,298.5 106.56,335.53 	"/>
	<polygon class="st22" points="91.02,471.31 46.59,442.52 55.36,436.91 98.17,469.68 	"/>
	<polygon class="st24" points="55.36,436.91 59.52,427.63 112.21,466.47 98.17,469.68 	"/>
	<polygon class="st24" points="46.59,442.52 43.85,428.15 55.36,436.91 	"/>
	<polygon class="st23" points="59.52,427.63 55.36,436.91 43.85,428.15 	"/>
	<polygon class="st21" points="68.05,391.45 78.61,467.87 91.02,471.31 78.53,400.67 	"/>
	<polygon class="st24" points="101.55,398.76 112.21,466.47 120.86,464.49 109.02,389.31 	"/>
	<polygon class="st22" points="78.53,400.67 91.02,471.31 112.21,466.47 101.55,398.76 	"/>
	<polygon class="st23" points="109.02,389.31 89.09,372.19 101.55,398.76 	"/>
	<polygon class="st22" points="89.09,372.19 68.05,391.45 78.53,400.67 	"/>
	<polygon class="st24" points="101.55,398.76 89.09,372.19 78.53,400.67 	"/>
	<g>
		<polygon class="st23" points="121.6,456.79 131.97,445.07 117.8,432.67 93.52,453.86 104.82,460.63 		"/>
		<polygon class="st21" points="104.82,460.63 93.52,453.86 92.54,472.66 115.15,481.07 113.47,473.68 		"/>
		<polygon class="st22" points="131.97,445.07 121.6,456.79 113.47,473.68 115.15,481.07 142.82,466.04 		"/>
		<polygon class="st24" points="113.47,473.68 121.6,456.79 104.82,460.63 		"/>
	</g>
</g>
<g>
	<polygon class="st21" points="77.65,329.62 106.47,268.1 113.33,275.38 74.99,348.84 	"/>
	<polygon class="st22" points="128.08,283.97 124.5,309.1 87.4,352.14 74.99,348.84 113.33,275.38 	"/>
	<polygon class="st23" points="136.62,269.94 128.08,283.97 124.5,309.1 131.56,298.74 136.63,284.57 	"/>
	<polygon class="st24" points="87.4,352.14 98.04,352.88 124.5,309.1 	"/>
	<polygon class="st24" points="126.34,261.09 113.33,275.38 128.08,283.97 136.62,269.94 	"/>
	<polygon class="st22" points="106.47,268.1 113.33,275.38 126.34,261.09 	"/>
	<polygon class="st21" points="47.84,349.4 67.24,210.49 77.12,219.15 57.92,350.1 	"/>
	<polygon class="st22" points="98.5,223.7 77.12,219.15 57.92,350.1 80.02,351.63 	"/>
	<polygon class="st24" points="108.34,218.24 98.5,223.7 80.02,351.63 87.4,352.14 	"/>
	<polygon class="st22" points="95.51,184.11 67.24,210.49 77.12,219.15 	"/>
	<polygon class="st24" points="98.5,223.7 77.12,219.15 95.51,184.11 	"/>
	<polygon class="st23" points="108.34,218.24 95.51,184.11 98.5,223.7 	"/>
	<polygon class="st22" points="44.28,349.15 10.1,308.73 20.12,305.89 51.6,349.66 	"/>
	<polygon class="st24" points="20.12,305.89 26.79,298.22 65.97,350.65 51.6,349.66 	"/>
	<polygon class="st24" points="10.1,308.73 11.64,294.18 20.12,305.89 	"/>
	<polygon class="st23" points="26.79,298.22 20.12,305.89 11.64,294.18 	"/>
	<polygon class="st21" points="45.43,266.06 33.4,342.26 44.28,349.15 52.8,277.92 	"/>
	<polygon class="st24" points="75.38,282.76 65.97,350.65 74.82,351.27 85.26,275.88 	"/>
	<polygon class="st22" points="52.8,277.92 44.28,349.15 65.97,350.65 75.38,282.76 	"/>
	<polygon class="st23" points="85.26,275.88 71.15,253.72 75.38,282.76 	"/>
	<polygon class="st22" points="71.15,253.72 45.43,266.06 52.8,277.92 	"/>
	<polygon class="st24" points="75.38,282.76 71.15,253.72 52.8,277.92 	"/>
	<g>
		<polygon class="st23" points="77.76,344.11 91.08,335.89 81.11,319.92 51.73,333.17 60.58,342.92 		"/>
		<polygon class="st21" points="60.58,342.92 51.73,333.17 45.35,350.88 64.56,365.48 65.08,357.92 		"/>
		<polygon class="st22" points="91.08,335.89 77.76,344.11 65.08,357.92 64.56,365.48 95.39,359.12 		"/>
		<polygon class="st24" points="65.08,357.92 77.76,344.11 60.58,342.92 		"/>
	</g>
</g>
<polygon class="st25" points="177,0 201,176.08 164,247.08 180,379.08 258,516.08 327,516.08 408,612.58 320.61,533.59 
	226.5,533.59 164,381 156,250 136,214 189,174 153,27 71,58 44,220 110,435.08 0,207 0,0 "/>
<polygon class="st10" points="110,435.08 81.92,612.58 0,612.58 0,207 "/>
<polygon class="st10" points="335,0 294,194.08 314.5,316.08 294,404.08 387,463.08 453,570.08 399.67,570.08 383.79,475 
	253,416.33 304.33,311.67 253,192.33 314.33,25 214.33,51 201,176.08 177,0 "/>
<polygon class="st9" points="1006.08,0 1006.08,191.19 920.58,341.33 890.58,447.68 829.08,462.68 644.59,570.08 1400,570.08 
	1400,0 "/>
<polygon class="st9" points="1097.57,0 1112.57,200.19 1061.57,335.19 1067.57,414.68 998.58,546.68 904.08,612.58 1147.07,612.58 
	1400,612.58 1400,0 "/>
<polygon class="st10" points="644.59,570.08 829.08,462.68 890.58,447.68 920.58,341.33 1006.08,191.19 1006.08,0 1097.57,0 
	1015,12 1022.3,52.5 1078,80 1027,70.5 1052,182.5 959.5,293 985.5,361.5 950.5,313 928,341.58 920.5,478.5 833,479.5 "/>
<polygon class="st10" points="1097.57,0 1112.57,200.19 1061.57,335.19 1067.57,414.68 998.58,546.68 904.08,612.58 945.67,612.58 
	1015,555 1077.67,420.33 1136.33,429 1083,397.67 1080.33,333 1156.33,217 1163.67,91.67 1127.67,198.33 "/>
<g>
	<polygon class="st21" points="232.2,608.88 242.49,541.73 251.13,546.78 235.06,628.06 	"/>
	<polygon class="st22" points="267.7,550.86 271.35,575.97 247.9,627.73 235.06,628.06 251.13,546.78 	"/>
	<polygon class="st23" points="271.94,534.98 267.7,550.86 271.35,575.97 275.2,564.05 276.08,549.02 	"/>
	<polygon class="st24" points="247.9,627.73 258.31,625.44 271.35,575.97 	"/>
	<polygon class="st24" points="259.58,529.4 251.13,546.78 267.7,550.86 271.94,534.98 	"/>
	<polygon class="st22" points="242.49,541.73 251.13,546.78 259.58,529.4 	"/>
	<polygon class="st21" points="209.17,636.26 188.61,497.51 200.54,503.04 219.04,634.08 	"/>
	<polygon class="st22" points="222.32,501.38 200.54,503.04 219.04,634.08 240.67,629.32 	"/>
	<polygon class="st24" points="230.23,493.37 222.32,501.38 240.67,629.32 247.9,627.73 	"/>
	<polygon class="st22" points="208.29,464.23 188.61,497.51 200.54,503.04 	"/>
	<polygon class="st24" points="222.32,501.38 200.54,503.04 208.29,464.23 	"/>
	<polygon class="st23" points="230.23,493.37 208.29,464.23 222.32,501.38 	"/>
	<polygon class="st22" points="205.68,637.02 161.49,607.88 170.3,602.33 212.85,635.45 	"/>
	<polygon class="st24" points="170.3,602.33 174.54,593.09 226.91,632.35 212.85,635.45 	"/>
	<polygon class="st24" points="161.49,607.88 158.87,593.49 170.3,602.33 	"/>
	<polygon class="st23" points="174.54,593.09 170.3,602.33 158.87,593.49 	"/>
	<polygon class="st21" points="183.36,556.98 193.3,633.48 205.68,637.02 193.77,566.29 	"/>
	<polygon class="st24" points="216.8,564.56 226.91,632.35 235.59,630.44 224.34,555.17 	"/>
	<polygon class="st22" points="193.77,566.29 205.68,637.02 226.91,632.35 216.8,564.56 	"/>
	<polygon class="st23" points="224.34,555.17 204.55,537.89 216.8,564.56 	"/>
	<polygon class="st22" points="204.55,537.89 183.36,556.98 193.77,566.29 	"/>
	<polygon class="st24" points="216.8,564.56 204.55,537.89 193.77,566.29 	"/>
	<g>
		<polygon class="st23" points="236.38,622.75 246.84,611.11 232.78,598.6 208.32,619.59 219.57,626.45 		"/>
		<polygon class="st21" points="219.57,626.45 208.32,619.59 207.2,638.39 229.74,646.97 228.11,639.57 		"/>
		<polygon class="st22" points="246.84,611.11 236.38,622.75 228.11,639.57 229.74,646.97 257.53,632.17 		"/>
		<polygon class="st24" points="228.11,639.57 236.38,622.75 219.57,626.45 		"/>
	</g>
</g>
<g>
	<polygon class="st21" points="172.18,563.09 163.53,495.71 173.22,498.18 180.24,580.74 	"/>
	<polygon class="st22" points="190.28,497.53 200.72,520.65 192.48,576.88 180.24,580.74 173.22,498.18 	"/>
	<polygon class="st23" points="189.97,481.1 190.28,497.53 200.72,520.65 201.13,508.13 197.82,493.44 	"/>
	<polygon class="st24" points="192.48,576.88 201.85,571.8 200.72,520.65 	"/>
	<polygon class="st24" points="176.55,479.14 173.22,498.18 190.28,497.53 189.97,481.1 	"/>
	<polygon class="st22" points="163.53,495.71 173.22,498.18 176.55,479.14 	"/>
	<polygon class="st21" points="157.62,595.77 99.53,468.1 112.52,470.12 166.5,590.95 	"/>
	<polygon class="st22" points="133,462.5 112.52,470.12 166.5,590.95 185.97,580.4 	"/>
	<polygon class="st24" points="138.38,452.62 133,462.5 185.97,580.4 192.48,576.88 	"/>
	<polygon class="st22" points="109.25,430.68 99.53,468.1 112.52,470.12 	"/>
	<polygon class="st24" points="133,462.5 112.52,470.12 109.25,430.68 	"/>
	<polygon class="st23" points="138.38,452.62 109.25,430.68 133,462.5 	"/>
	<polygon class="st22" points="154.48,597.47 103.95,581.67 110.89,573.9 160.92,593.97 	"/>
	<polygon class="st24" points="110.89,573.9 112.41,563.85 173.59,587.11 160.92,593.97 	"/>
	<polygon class="st24" points="103.95,581.67 97.46,568.56 110.89,573.9 	"/>
	<polygon class="st23" points="112.41,563.85 110.89,573.9 97.46,568.56 	"/>
	<polygon class="st21" points="110.91,526.71 141.6,597.48 154.48,597.47 123.48,532.78 	"/>
	<polygon class="st24" points="145.14,524.76 173.59,587.11 181.4,582.88 149.8,513.64 	"/>
	<polygon class="st22" points="123.48,532.78 154.48,597.47 173.59,587.11 145.14,524.76 	"/>
	<polygon class="st23" points="149.8,513.64 126,502.51 145.14,524.76 	"/>
	<polygon class="st22" points="126,502.51 110.91,526.71 123.48,532.78 	"/>
	<polygon class="st24" points="145.14,524.76 126,502.51 123.48,532.78 	"/>
	<g>
		<polygon class="st23" points="180.04,575.27 186.88,561.19 169.9,553.05 152.2,579.98 164.9,583.47 		"/>
		<polygon class="st21" points="164.9,583.47 152.2,579.98 156.31,598.36 180.35,600.38 176.74,593.72 		"/>
		<polygon class="st22" points="186.88,561.19 180.04,575.27 176.74,593.72 180.35,600.38 202.97,578.48 		"/>
		<polygon class="st24" points="176.74,593.72 180.04,575.27 164.9,583.47 		"/>
	</g>
</g>
<polygon class="st10" points="0,435.08 95,464.08 121,529.08 204,573.08 233,625.08 340,705.08 0,705.08 "/>
<polygon class="st10" points="233,725.08 100,635.08 52,539.08 0,500.08 0,725.08 "/>
<polygon class="st25" points="0,525.67 49,578.33 68.33,670.33 233,725.08 100,635.08 52,539.08 0,500.08 "/>
<polygon class="st25" points="0,435.08 95,464.08 121,529.08 204,573.08 233,625.08 340,705.08 226.5,655 204,598.33 111.67,569.67 
	93,480.33 31,473.67 "/>
<g>
	<polygon class="st26" points="1115.8,600.98 1125.82,473.99 1136.57,481.21 1126.19,600.98 	"/>
	<polygon class="st27" points="1158.8,483.99 1136.57,481.21 1126.19,600.98 1148.95,600.98 	"/>
	<polygon class="st28" points="1168.5,478.44 1158.8,483.99 1148.95,600.98 1156.55,600.98 	"/>
	<polygon class="st28" points="1152.93,448.33 1125.82,473.99 1136.57,481.21 	"/>
	<polygon class="st29" points="1158.8,483.99 1136.57,481.21 1152.93,448.33 	"/>
	<polygon class="st30" points="1168.5,478.44 1152.93,448.33 1158.8,483.99 	"/>
	<polygon class="st26" points="1139.38,597.79 1187.6,500.8 1193.78,509.91 1147.57,601.09 	"/>
	<polygon class="st27" points="1210.44,519.16 1193.78,509.91 1147.57,601.09 1165.52,608.31 	"/>
	<polygon class="st28" points="1219.86,517.86 1210.44,519.16 1165.52,608.31 1171.52,610.73 	"/>
	<polygon class="st28" points="1217.13,489.17 1187.6,500.8 1193.78,509.91 	"/>
	<polygon class="st29" points="1210.44,519.16 1193.78,509.91 1217.13,489.17 	"/>
	<polygon class="st30" points="1219.86,517.86 1217.13,489.17 1210.44,519.16 	"/>
	<polygon class="st28" points="1125.31,516.43 1145.93,592.97 1135.57,601.2 1119.08,529.35 	"/>
	<polygon class="st26" points="1096.54,536.77 1113.57,605.11 1104.59,606.7 1085.68,530.81 	"/>
	<polygon class="st27" points="1119.08,529.35 1135.57,601.2 1113.57,605.11 1096.54,536.77 	"/>
	<polygon class="st28" points="1085.68,530.81 1097.68,506.63 1096.54,536.77 	"/>
	<polygon class="st30" points="1097.68,506.63 1125.31,516.43 1119.08,529.35 	"/>
	<polygon class="st29" points="1096.54,536.77 1097.68,506.63 1119.08,529.35 	"/>
	<polygon class="st26" points="1143.43,516.43 1122.81,592.97 1133.17,601.2 1149.65,529.35 	"/>
	<polygon class="st28" points="1172.2,536.77 1155.16,605.11 1164.15,606.7 1183.05,530.81 	"/>
	<polygon class="st27" points="1149.65,529.35 1133.17,601.2 1155.16,605.11 1172.2,536.77 	"/>
	<polygon class="st30" points="1183.05,530.81 1171.05,506.63 1172.2,536.77 	"/>
	<polygon class="st28" points="1171.05,506.63 1143.43,516.43 1149.65,529.35 	"/>
	<polygon class="st29" points="1172.2,536.77 1171.05,506.63 1149.65,529.35 	"/>
	<polygon class="st29" points="1151.22,599.26 1166.2,588.51 1153.19,570.56 1119.75,588.51 1130.95,599.26 	"/>
	<polygon class="st26" points="1130.95,599.26 1119.75,588.51 1113.69,609.85 1137.45,625.43 1137.45,616.51 	"/>
	<polygon class="st27" points="1166.2,588.51 1151.22,599.26 1137.45,616.51 1137.45,625.43 1173.16,615.45 	"/>
	<polygon class="st28" points="1137.45,616.51 1151.22,599.26 1130.95,599.26 	"/>
</g>
<g>
	<polygon class="st26" points="1180.17,512.75 1190.18,385.76 1200.93,392.99 1190.55,512.75 	"/>
	<polygon class="st27" points="1223.17,395.76 1200.93,392.99 1190.55,512.75 1213.31,512.75 	"/>
	<polygon class="st28" points="1232.87,390.21 1223.17,395.76 1213.31,512.75 1220.91,512.75 	"/>
	<polygon class="st28" points="1217.29,360.1 1190.18,385.76 1200.93,392.99 	"/>
	<polygon class="st29" points="1223.17,395.76 1200.93,392.99 1217.29,360.1 	"/>
	<polygon class="st30" points="1232.87,390.21 1217.29,360.1 1223.17,395.76 	"/>
	<polygon class="st26" points="1203.74,509.56 1251.96,412.57 1258.15,421.68 1211.93,512.86 	"/>
	<polygon class="st27" points="1274.8,430.93 1258.15,421.68 1211.93,512.86 1229.88,520.09 	"/>
	<polygon class="st28" points="1284.22,429.63 1274.8,430.93 1229.88,520.09 1235.88,522.5 	"/>
	<polygon class="st28" points="1281.49,400.94 1251.96,412.57 1258.15,421.68 	"/>
	<polygon class="st29" points="1274.8,430.93 1258.15,421.68 1281.49,400.94 	"/>
	<polygon class="st30" points="1284.22,429.63 1281.49,400.94 1274.8,430.93 	"/>
	<polygon class="st28" points="1189.67,428.2 1210.29,504.74 1199.93,512.97 1183.44,441.13 	"/>
	<polygon class="st26" points="1160.9,448.54 1177.93,516.88 1168.95,518.47 1150.04,442.58 	"/>
	<polygon class="st27" points="1183.44,441.13 1199.93,512.97 1177.93,516.88 1160.9,448.54 	"/>
	<polygon class="st28" points="1150.04,442.58 1162.05,418.4 1160.9,448.54 	"/>
	<polygon class="st30" points="1162.05,418.4 1189.67,428.2 1183.44,441.13 	"/>
	<polygon class="st29" points="1160.9,448.54 1162.05,418.4 1183.44,441.13 	"/>
	<polygon class="st26" points="1207.79,428.2 1187.17,504.74 1197.53,512.97 1214.02,441.13 	"/>
	<polygon class="st28" points="1236.56,448.54 1219.52,516.88 1228.51,518.47 1247.42,442.58 	"/>
	<polygon class="st27" points="1214.02,441.13 1197.53,512.97 1219.52,516.88 1236.56,448.54 	"/>
	<polygon class="st30" points="1247.42,442.58 1235.41,418.4 1236.56,448.54 	"/>
	<polygon class="st28" points="1235.41,418.4 1207.79,428.2 1214.02,441.13 	"/>
	<polygon class="st29" points="1236.56,448.54 1235.41,418.4 1214.02,441.13 	"/>
	<polygon class="st29" points="1215.58,511.03 1230.56,500.28 1217.55,482.33 1184.11,500.28 1195.31,511.03 	"/>
	<polygon class="st26" points="1195.31,511.03 1184.11,500.28 1178.06,521.62 1201.81,537.21 1201.81,528.28 	"/>
	<polygon class="st27" points="1230.56,500.28 1215.58,511.03 1201.81,528.28 1201.81,537.21 1237.52,527.22 	"/>
	<polygon class="st28" points="1201.81,528.28 1215.58,511.03 1195.31,511.03 	"/>
</g>
<g>
	<polygon class="st26" points="1203.4,433.17 1167.47,310.96 1180.09,313.88 1213.1,429.47 	"/>
	<polygon class="st27" points="1201.85,308.54 1180.09,313.88 1213.1,429.47 1234.37,421.35 	"/>
	<polygon class="st28" points="1208.94,299.89 1201.85,308.54 1234.37,421.35 1241.47,418.64 	"/>
	<polygon class="st28" points="1183.65,277.32 1167.47,310.96 1180.09,313.88 	"/>
	<polygon class="st29" points="1201.85,308.54 1180.09,313.88 1183.65,277.32 	"/>
	<polygon class="st30" points="1208.94,299.89 1183.65,277.32 1201.85,308.54 	"/>
	<polygon class="st26" points="1224.29,421.79 1234.75,313.98 1243.78,320.28 1233.12,421.95 	"/>
	<polygon class="st27" points="1262.64,322.99 1243.78,320.28 1233.12,421.95 1252.46,422.3 	"/>
	<polygon class="st28" points="1270.97,318.41 1262.64,322.99 1252.46,422.3 1258.93,422.41 	"/>
	<polygon class="st28" points="1258.19,292.58 1234.75,313.98 1243.78,320.28 	"/>
	<polygon class="st29" points="1262.64,322.99 1243.78,320.28 1258.19,292.58 	"/>
	<polygon class="st30" points="1270.97,318.41 1258.19,292.58 1262.64,322.99 	"/>
	<polygon class="st28" points="1182.13,350.79 1228.69,414.95 1221.95,426.33 1180.92,365.09 	"/>
	<polygon class="st26" points="1162.5,380.05 1202.79,437.83 1194.97,442.52 1150.24,378.36 	"/>
	<polygon class="st27" points="1180.92,365.09 1221.95,426.33 1202.79,437.83 1162.5,380.05 	"/>
	<polygon class="st28" points="1150.24,378.36 1152.83,351.49 1162.5,380.05 	"/>
	<polygon class="st30" points="1152.83,351.49 1182.13,350.79 1180.92,365.09 	"/>
	<polygon class="st29" points="1162.5,380.05 1152.83,351.49 1180.92,365.09 	"/>
	<polygon class="st26" points="1199.06,344.33 1207.09,423.19 1219.71,427.19 1209.48,354.19 	"/>
	<polygon class="st28" points="1233.19,353.07 1241.65,422.99 1250.61,421.28 1241.21,343.64 	"/>
	<polygon class="st27" points="1209.48,354.19 1219.71,427.19 1241.65,422.99 1233.19,353.07 	"/>
	<polygon class="st30" points="1241.21,343.64 1221.37,325.33 1233.19,353.07 	"/>
	<polygon class="st28" points="1221.37,325.33 1199.06,344.33 1209.48,354.19 	"/>
	<polygon class="st29" points="1233.19,353.07 1221.37,325.33 1209.48,354.19 	"/>
	<polygon class="st29" points="1235.88,418.93 1246.04,403.55 1227.48,391.42 1202.64,420.12 1216.94,426.16 	"/>
	<polygon class="st26" points="1216.94,426.16 1202.64,420.12 1204.6,442.21 1232.35,448.3 1229.17,439.96 	"/>
	<polygon class="st27" points="1246.04,403.55 1235.88,418.93 1229.17,439.96 1232.35,448.3 1262.15,426.23 	"/>
	<polygon class="st28" points="1229.17,439.96 1235.88,418.93 1216.94,426.16 	"/>
</g>
<g>
	<polygon class="st31" points="1177.57,244.31 1194.57,239.4 1205.45,215.26 	"/>
	<polygon class="st32" points="1177.57,244.31 1164.64,324.91 1174.4,326.71 1194.57,239.4 	"/>
	<polygon class="st33" points="1194.57,239.4 1174.4,326.71 1183.89,328.46 1203.21,275.7 	"/>
	<polygon class="st31" points="1203.21,275.7 1183.89,328.46 1189.43,329.49 1212.2,270.82 	"/>
	<polygon class="st34" points="1205.45,215.26 1194.57,239.4 1217.55,249.93 	"/>
	<polygon class="st35" points="1194.57,239.4 1203.21,275.7 1212.2,270.82 1217.55,249.93 	"/>
	<polygon class="st34" points="1164.53,244.31 1147.53,239.4 1136.65,215.26 	"/>
	<polygon class="st31" points="1164.53,244.31 1177.46,324.91 1167.71,326.71 1147.53,239.4 	"/>
	<polygon class="st33" points="1147.53,239.4 1167.71,326.71 1158.21,328.46 1138.89,275.7 	"/>
	<polygon class="st32" points="1138.89,275.7 1158.21,328.46 1152.68,329.49 1129.91,270.82 	"/>
	<polygon class="st35" points="1136.65,215.26 1147.53,239.4 1124.55,249.93 	"/>
	<polygon class="st31" points="1147.53,239.4 1138.89,275.7 1129.91,270.82 1124.55,249.93 	"/>
	<polygon class="st32" points="1148.03,331.9 1105.79,318.63 1114.72,314.93 1168.7,331.9 	"/>
	<polygon class="st34" points="1121.36,308.42 1113.19,307.66 1114.72,314.93 1130.78,319.98 	"/>
	<polygon class="st33" points="1124.42,297.96 1121.36,308.42 1130.78,319.98 1168.7,331.9 1167.78,324.44 	"/>
	<polygon class="st35" points="1105.79,300.02 1113.19,307.66 1121.36,308.42 1124.42,297.96 	"/>
	<polygon class="st31" points="1105.79,318.63 1105.79,300.02 1113.19,307.66 1114.72,314.93 	"/>
	<polygon class="st32" points="1158.6,328.73 1148.46,309.57 1161.28,311.77 1168.74,331.91 	"/>
	<polygon class="st33" points="1165.39,300.86 1161.28,311.77 1168.74,331.91 1173.37,331.9 	"/>
	<polygon class="st35" points="1154.04,297.96 1161.28,311.77 1165.39,300.86 	"/>
	<polygon class="st31" points="1148.46,309.57 1161.28,311.77 1154.04,297.96 	"/>
	<polygon class="st33" points="1194.07,331.9 1236.31,318.63 1227.38,314.93 1173.4,331.9 	"/>
	<polygon class="st34" points="1220.75,308.42 1228.91,307.66 1227.38,314.93 1211.32,319.98 	"/>
	<polygon class="st32" points="1217.68,297.96 1220.75,308.42 1211.32,319.98 1173.4,331.9 1174.32,324.44 	"/>
	<polygon class="st31" points="1236.31,300.02 1228.91,307.66 1220.75,308.42 1217.68,297.96 	"/>
	<polygon class="st35" points="1236.31,318.63 1236.31,300.02 1228.91,307.66 1227.38,314.93 	"/>
	<polygon class="st33" points="1183.5,328.73 1193.64,309.57 1180.82,311.77 1173.37,331.91 	"/>
	<polygon class="st32" points="1176.71,300.86 1180.82,311.77 1173.37,331.91 1168.74,331.9 	"/>
	<polygon class="st31" points="1188.06,297.96 1180.82,311.77 1176.71,300.86 	"/>
	<polygon class="st35" points="1193.64,309.57 1180.82,311.77 1188.06,297.96 	"/>
</g>
<g>
	<polygon class="st31" points="1135.16,186.53 1141.78,170.12 1129.49,146.66 	"/>
	<polygon class="st32" points="1135.16,186.53 1190.63,246.42 1198.06,239.85 1141.78,170.12 	"/>
	<polygon class="st33" points="1141.78,170.12 1198.06,239.85 1205.29,233.46 1175.68,185.7 	"/>
	<polygon class="st31" points="1175.68,185.7 1205.29,233.46 1209.51,229.73 1177.38,175.62 	"/>
	<polygon class="st34" points="1129.49,146.66 1141.78,170.12 1164.24,158.52 	"/>
	<polygon class="st35" points="1141.78,170.12 1175.68,185.7 1177.38,175.62 1164.24,158.52 	"/>
	<polygon class="st34" points="1127.12,196.79 1112.77,207.14 1087.05,200.81 	"/>
	<polygon class="st31" points="1127.12,196.79 1198.53,236.33 1193.93,245.12 1112.77,207.14 	"/>
	<polygon class="st33" points="1112.77,207.14 1193.93,245.12 1189.46,253.67 1136.01,236.33 	"/>
	<polygon class="st32" points="1136.01,236.33 1189.46,253.67 1186.84,258.66 1126.62,240.39 	"/>
	<polygon class="st35" points="1087.05,200.81 1112.77,207.14 1106.88,231.72 	"/>
	<polygon class="st31" points="1112.77,207.14 1136.01,236.33 1126.62,240.39 1106.88,231.72 	"/>
	<polygon class="st32" points="1185.88,263.81 1149.38,288.87 1151.98,279.56 1198.63,247.54 	"/>
	<polygon class="st34" points="1150.95,270.32 1145.31,276.27 1151.98,279.56 1165.86,270.03 	"/>
	<polygon class="st33" points="1144.6,261.45 1150.95,270.32 1165.86,270.03 1198.63,247.54 1192.19,243.66 	"/>
	<polygon class="st35" points="1134.73,277.39 1145.31,276.27 1150.95,270.32 1144.6,261.45 	"/>
	<polygon class="st31" points="1149.38,288.87 1134.73,277.39 1145.31,276.27 1151.98,279.56 	"/>
	<polygon class="st32" points="1189.9,253.53 1168.57,249.69 1178.21,240.96 1198.66,247.51 	"/>
	<polygon class="st33" points="1172.15,230.99 1178.21,240.96 1198.66,247.51 1201.51,243.87 	"/>
	<polygon class="st35" points="1162.87,238.14 1178.21,240.96 1172.15,230.99 	"/>
	<polygon class="st31" points="1168.57,249.69 1178.21,240.96 1162.87,238.14 	"/>
	<polygon class="st33" points="1214.29,227.57 1229.89,186.13 1221.47,190.88 1201.53,243.84 	"/>
	<polygon class="st34" points="1212.26,192.09 1216.69,185.19 1221.47,190.88 1215.54,206.63 	"/>
	<polygon class="st32" points="1202.13,188.05 1212.26,192.09 1215.54,206.63 1201.53,243.84 1196.23,238.51 	"/>
	<polygon class="st31" points="1215.24,174.65 1216.69,185.19 1212.26,192.09 1202.13,188.05 	"/>
	<polygon class="st35" points="1229.89,186.13 1215.24,174.65 1216.69,185.19 1221.47,190.88 	"/>
	<polygon class="st33" points="1205.26,233.93 1196.44,214.13 1190.26,225.58 1201.52,243.87 	"/>
	<polygon class="st32" points="1179.14,222.08 1190.26,225.58 1201.52,243.87 1198.66,247.51 	"/>
	<polygon class="st31" points="1183.86,211.36 1190.26,225.58 1179.14,222.08 	"/>
	<polygon class="st35" points="1196.44,214.13 1190.26,225.58 1183.86,211.36 	"/>
</g>
<g>
	<polygon class="st26" points="1153.3,446.12 1046.03,338.86 1060.88,334.71 1161.33,436.72 	"/>
	<polygon class="st27" points="1080.59,316.72 1060.88,334.71 1161.33,436.72 1178.92,416.1 	"/>
	<polygon class="st28" points="1083.06,303.64 1080.59,316.72 1178.92,416.1 1184.81,409.21 	"/>
	<polygon class="st28" points="1043.75,294.47 1046.03,338.86 1060.88,334.71 	"/>
	<polygon class="st29" points="1080.59,316.72 1060.88,334.71 1043.75,294.47 	"/>
	<polygon class="st30" points="1083.06,303.64 1043.75,294.47 1080.59,316.72 	"/>
	<polygon class="st26" points="1168.64,422.31 1118.08,303.63 1131.11,305.08 1177.96,417.44 	"/>
	<polygon class="st27" points="1152.37,297.14 1131.11,305.08 1177.96,417.44 1198.38,406.77 	"/>
	<polygon class="st28" points="1158.47,287.61 1152.37,297.14 1198.38,406.77 1205.21,403.2 	"/>
	<polygon class="st28" points="1130.38,267.89 1118.08,303.63 1131.11,305.08 	"/>
	<polygon class="st29" points="1152.37,297.14 1131.11,305.08 1130.38,267.89 	"/>
	<polygon class="st30" points="1158.47,287.61 1130.38,267.89 1152.37,297.14 	"/>
	<polygon class="st28" points="1084.07,372.14 1169.34,412.64 1168.78,428.39 1090.96,387.77 	"/>
	<polygon class="st26" points="1080.24,413.92 1155.31,451.33 1149.81,460.7 1066.46,419.15 	"/>
	<polygon class="st27" points="1090.96,387.77 1168.78,428.39 1155.31,451.33 1080.24,413.92 	"/>
	<polygon class="st28" points="1066.46,419.15 1053.84,389.58 1080.24,413.92 	"/>
	<polygon class="st30" points="1053.84,389.58 1084.07,372.14 1090.96,387.77 	"/>
	<polygon class="st29" points="1080.24,413.92 1053.84,389.58 1090.96,387.77 	"/>
	<polygon class="st26" points="1098.08,355.72 1151.46,433.59 1166.93,430.57 1114.6,360.08 	"/>
	<polygon class="st28" points="1138.74,345.39 1187.47,413.66 1195.86,406.76 1141.75,330.96 	"/>
	<polygon class="st27" points="1114.6,360.08 1166.93,430.57 1187.47,413.66 1138.74,345.39 	"/>
	<polygon class="st30" points="1141.75,330.96 1110.56,323.13 1138.74,345.39 	"/>
	<polygon class="st28" points="1110.56,323.13 1098.08,355.72 1114.6,360.08 	"/>
	<polygon class="st29" points="1138.74,345.39 1110.56,323.13 1114.6,360.08 	"/>
	<polygon class="st29" points="1179.13,412.71 1180.98,390.84 1154.65,388.74 1145.06,432.91 1163.45,431.08 	"/>
	<polygon class="st26" points="1163.45,431.08 1145.06,432.91 1159.7,454.89 1192.19,445.42 1184.1,438.52 	"/>
	<polygon class="st27" points="1180.98,390.84 1179.13,412.71 1184.1,438.52 1192.19,445.42 1210.76,405.36 	"/>
	<polygon class="st28" points="1184.1,438.52 1179.13,412.71 1163.45,431.08 	"/>
</g>
<polygon class="st10" points="1231.06,0 1240.06,162.69 1181.57,263.19 1252.06,405.68 1147.07,612.58 1273.06,683.17 1400,683.17 
	1400,0 "/>
<polygon class="st25" points="1231.06,0 1240.06,162.69 1181.57,263.19 1252.06,405.68 1147.07,612.58 1273.06,683.17 1400,683.17 
	1283,660 1181,608 1297,592 1187,590 1283,422 1369,375 1278,400 1202,261 1305,160 1248,40 1313,17 "/>
<g>
	<polygon class="st36" points="160.22,718.66 222.97,654.09 206.31,648.1 147.75,718.66 	"/>
	<polygon class="st37" points="206.31,648.1 195.89,634.3 123.25,718.66 147.75,718.66 	"/>
	<polygon class="st38" points="222.97,654.09 222.06,629.23 206.31,648.1 	"/>
	<polygon class="st39" points="195.89,634.3 206.31,648.1 222.06,629.23 	"/>
	<polygon class="st37" points="103.89,730.22 118.45,555.88 134.07,565.8 118.98,730.22 	"/>
	<polygon class="st40" points="166,569.62 133.69,565.8 118.6,730.22 151.67,730.22 	"/>
	<polygon class="st36" points="180.1,561.99 166,569.62 151.67,730.22 162.73,730.22 	"/>
	<polygon class="st39" points="157.47,520.66 118.07,555.88 133.69,565.8 	"/>
	<polygon class="st38" points="166,569.62 133.69,565.8 157.47,520.66 	"/>
	<polygon class="st37" points="180.1,561.99 157.47,520.66 166,569.62 	"/>
	<polygon class="st36" points="111.95,619.29 135.11,723.13 120.74,733.56 102.85,636.26 	"/>
	<polygon class="st37" points="72.19,644.88 88.75,726.35 75.49,722.45 57.98,636.26 	"/>
	<polygon class="st40" points="102.85,636.26 120.74,733.56 88.75,726.35 72.19,644.88 	"/>
	<polygon class="st39" points="57.98,636.26 75.49,604.54 72.19,644.88 	"/>
	<polygon class="st37" points="75.49,604.54 111.95,619.29 102.85,636.26 	"/>
	<polygon class="st38" points="72.19,644.88 75.49,604.54 102.85,636.26 	"/>
	<polygon class="st36" points="148.07,736.18 225.51,711.84 209.14,705.06 127.77,736.18 	"/>
	<polygon class="st39" points="196.97,693.13 211.94,691.72 209.14,705.06 184.03,714.66 	"/>
	<polygon class="st40" points="191.36,673.94 196.97,693.13 184.03,714.66 127.77,736.18 127.77,724.11 	"/>
	<polygon class="st38" points="225.51,677.72 211.94,691.72 196.97,693.13 191.36,673.94 	"/>
	<polygon class="st37" points="225.51,711.84 225.51,677.72 211.94,691.72 209.14,705.06 	"/>
	<polygon class="st40" points="107.47,736.18 30.03,711.84 46.41,705.06 127.77,736.18 	"/>
	<polygon class="st39" points="58.58,693.13 43.6,691.72 46.41,705.06 71.52,714.66 	"/>
	<polygon class="st36" points="64.19,673.94 58.58,693.13 71.52,714.66 127.77,736.18 127.77,724.11 	"/>
	<polygon class="st37" points="30.03,677.72 43.6,691.72 58.58,693.13 64.19,673.94 	"/>
	<polygon class="st38" points="30.03,711.84 30.03,677.72 43.6,691.72 46.41,705.06 	"/>
</g>
</svg>
